<svg width="58" height="58" viewBox="0 0 58 58" fill="none" xmlns="http://www.w3.org/2000/svg">
<path d="M9.66667 31.4167H24.1667C24.8076 31.4167 25.4223 31.1621 25.8755 30.7088C26.3287 30.2556 26.5833 29.6409 26.5833 29V9.66667C26.5833 9.02573 26.3287 8.41104 25.8755 7.95783C25.4223 7.50461 24.8076 7.25 24.1667 7.25H9.66667C9.02573 7.25 8.41104 7.50461 7.95783 7.95783C7.50461 8.41104 7.25 9.02573 7.25 9.66667V29C7.25 29.6409 7.50461 30.2556 7.95783 30.7088C8.41104 31.1621 9.02573 31.4167 9.66667 31.4167ZM7.25 48.3333C7.25 48.9743 7.50461 49.589 7.95783 50.0422C8.41104 50.4954 9.02573 50.75 9.66667 50.75H24.1667C24.8076 50.75 25.4223 50.4954 25.8755 50.0422C26.3287 49.589 26.5833 48.9743 26.5833 48.3333V38.6667C26.5833 38.0257 26.3287 37.411 25.8755 36.9578C25.4223 36.5046 24.8076 36.25 24.1667 36.25H9.66667C9.02573 36.25 8.41104 36.5046 7.95783 36.9578C7.50461 37.411 7.25 38.0257 7.25 38.6667V48.3333ZM31.4167 48.3333C31.4167 48.9743 31.6713 49.589 32.1245 50.0422C32.5777 50.4954 33.1924 50.75 33.8333 50.75H48.3333C48.9743 50.75 49.589 50.4954 50.0422 50.0422C50.4954 49.589 50.75 48.9743 50.75 48.3333V31.4167C50.75 30.7757 50.4954 30.161 50.0422 29.7078C49.589 29.2546 48.9743 29 48.3333 29H33.8333C33.1924 29 32.5777 29.2546 32.1245 29.7078C31.6713 30.161 31.4167 30.7757 31.4167 31.4167V48.3333ZM33.8333 24.1667H48.3333C48.9743 24.1667 49.589 23.9121 50.0422 23.4588C50.4954 23.0056 50.75 22.3909 50.75 21.75V9.66667C50.75 9.02573 50.4954 8.41104 50.0422 7.95783C49.589 7.50461 48.9743 7.25 48.3333 7.25H33.8333C33.1924 7.25 32.5777 7.50461 32.1245 7.95783C31.6713 8.41104 31.4167 9.02573 31.4167 9.66667V21.75C31.4167 22.3909 31.6713 23.0056 32.1245 23.4588C32.5777 23.9121 33.1924 24.1667 33.8333 24.1667Z" fill="#787878"/>
</svg>
