<svg width="58" height="58" viewBox="0 0 58 58" fill="none" xmlns="http://www.w3.org/2000/svg">
<path d="M28.9999 4.8335C24.2202 4.8335 19.5478 6.25085 15.5736 8.90631C11.5995 11.5618 8.50196 15.3361 6.67284 19.752C4.84372 24.1679 4.36514 29.027 5.29762 33.7148C6.23009 38.4027 8.53175 42.7088 11.9115 46.0886C15.2913 49.4683 19.5974 51.77 24.2852 52.7025C28.9731 53.635 33.8322 53.1564 38.2481 51.3273C42.664 49.4981 46.4383 46.4006 49.0938 42.4264C51.7492 38.4523 53.1666 33.7799 53.1666 29.0002C53.1666 25.8266 52.5415 22.684 51.327 19.752C50.1125 16.8199 48.3324 14.1558 46.0883 11.9117C43.8443 9.66767 41.1801 7.88756 38.2481 6.67307C35.3161 5.45859 32.1735 4.8335 28.9999 4.8335ZM28.9999 48.3335C25.1762 48.3335 21.4383 47.1996 18.2589 45.0752C15.0796 42.9509 12.6016 39.9314 11.1383 36.3987C9.67496 32.866 9.2921 28.9787 10.0381 25.2284C10.7841 21.4781 12.6254 18.0332 15.3292 15.3294C18.033 12.6256 21.4779 10.7843 25.2282 10.0383C28.9785 9.29233 32.8658 9.6752 36.3985 11.1385C39.9312 12.6018 42.9506 15.0798 45.075 18.2591C47.1994 21.4385 48.3333 25.1764 48.3333 29.0002C48.3333 34.1277 46.2964 39.0452 42.6707 42.6709C39.045 46.2966 34.1275 48.3335 28.9999 48.3335Z" fill="#787878"/>
<path d="M28.9975 21.7162C30.9902 21.7162 32.6056 20.1008 32.6056 18.1081C32.6056 16.1154 30.9902 14.5 28.9975 14.5C27.0048 14.5 25.3894 16.1154 25.3894 18.1081C25.3894 20.1008 27.0048 21.7162 28.9975 21.7162Z" fill="#787878"/>
<path d="M28.9975 43.4662C30.9902 43.4662 32.6056 41.8508 32.6056 39.8581C32.6056 37.8654 30.9902 36.25 28.9975 36.25C27.0048 36.25 25.3894 37.8654 25.3894 39.8581C25.3894 41.8508 27.0048 43.4662 28.9975 43.4662Z" fill="#787878"/>
<path d="M39.8654 32.6083C41.8581 32.6083 43.4735 30.9929 43.4735 29.0002C43.4735 27.0075 41.8581 25.3921 39.8654 25.3921C37.8727 25.3921 36.2573 27.0075 36.2573 29.0002C36.2573 30.9929 37.8727 32.6083 39.8654 32.6083Z" fill="#787878"/>
<path d="M18.1154 32.6083C20.1081 32.6083 21.7235 30.9929 21.7235 29.0002C21.7235 27.0075 20.1081 25.3921 18.1154 25.3921C16.1227 25.3921 14.5073 27.0075 14.5073 29.0002C14.5073 30.9929 16.1227 32.6083 18.1154 32.6083Z" fill="#787878"/>
<path d="M28.9975 31.4168C30.3322 31.4168 31.4141 30.3349 31.4141 29.0002C31.4141 27.6655 30.3322 26.5835 28.9975 26.5835C27.6628 26.5835 26.5808 27.6655 26.5808 29.0002C26.5808 30.3349 27.6628 31.4168 28.9975 31.4168Z" fill="#787878"/>
</svg>
